<svg width="1440" height="869" viewBox="0 0 1440 869" fill="none" xmlns="http://www.w3.org/2000/svg">
<path d="M-634.324 669.106C-503.311 385.307 -116.268 -108.75 275.499 -252.142C757.9 -428.707 1086.49 -159.254 1351.14 -917" stroke="#1B1B5C"/>
<path d="M-522.51 746.991C-391.496 463.193 -4.4539 -30.8651 387.313 -174.257C869.714 -350.821 1198.3 -81.3687 1462.95 -839.115" stroke="#1B1B5C"/>
<path d="M-410.695 824.876C-279.682 541.078 107.361 47.0203 499.128 -96.3714C981.528 -272.936 1310.12 -3.48331 1574.77 -761.229" stroke="#1B1B5C"/>
<path d="M-298.881 902.762C-167.867 618.964 219.175 124.906 610.942 -18.486C1093.34 -195.051 1421.93 74.4021 1686.58 -683.344" stroke="#1B1B5C"/>
<path d="M-187.067 980.647C-56.0527 696.849 330.989 202.791 722.757 59.3995C1205.16 -117.165 1533.74 152.288 1798.4 -605.458" stroke="#1B1B5C"/>
<path d="M-75.2521 1058.53C55.7617 774.734 442.804 280.676 834.571 137.285C1316.97 -39.2798 1645.56 230.173 1910.21 -527.573" stroke="#1B1B5C"/>
<path d="M36.5624 1136.42C167.576 852.62 554.618 358.562 946.386 215.17C1428.79 38.6056 1757.37 308.058 2022.03 -449.688" stroke="#1B1B5C"/>
<path d="M148.377 1214.3C279.391 930.505 666.433 436.447 1058.2 293.056C1540.6 116.491 1869.19 385.944 2133.84 -371.802" stroke="#1B1B5C"/>
<path d="M260.191 1292.19C391.205 1008.39 778.247 514.333 1170.01 370.941C1652.42 194.376 1981 463.829 2245.65 -293.917" stroke="#1B1B5C"/>
<path d="M372.006 1370.07C503.02 1086.28 890.062 592.218 1281.83 448.826C1764.23 272.262 2092.82 541.715 2357.47 -216.031" stroke="#1B1B5C"/>
<path d="M483.82 1447.96C614.834 1164.16 1001.88 670.103 1393.64 526.712C1876.04 350.147 2204.63 619.6 2469.28 -138.146" stroke="#1B1B5C"/>
<path d="M595.635 1525.84C726.648 1242.05 1113.69 747.989 1505.46 604.597C1987.86 428.033 2316.45 697.485 2581.1 -60.2607" stroke="#1B1B5C"/>
<path d="M707.449 1603.73C838.463 1319.93 1225.51 825.874 1617.27 682.483C2099.67 505.918 2428.26 775.371 2692.91 17.6247" stroke="#1B1B5C"/>
</svg>
