<svg width="105" height="28" viewBox="0 0 105 28" fill="none" xmlns="http://www.w3.org/2000/svg">
<path d="M27.0511 1.31818L22.7045 27.5H16.7727L9.61364 13.7443H9.46023L7.15909 27.5H0.0511364L4.39773 1.31818H10.4318L17.4886 15.0227H17.6932L19.9432 1.31818H27.0511ZM26.0668 27.5L30.4134 1.31818H49.2827L48.3111 7.04545H36.5497L35.8338 11.5455H46.6236L45.652 17.2727H34.8622L34.1463 21.7727H45.8565L44.8849 27.5H26.0668ZM75.9215 14.8693C75.4442 17.7159 74.4982 20.1023 73.0835 22.0284C71.6687 23.9545 69.9514 25.4077 67.9315 26.3878C65.9116 27.3679 63.7511 27.858 61.4499 27.858C58.9954 27.858 56.8647 27.3253 55.0579 26.2599C53.2511 25.1946 51.9343 23.6349 51.1076 21.581C50.2809 19.527 50.1147 17.017 50.609 14.0511C51.0692 11.2045 52.0067 8.80966 53.4215 6.86648C54.8363 4.9233 56.5621 3.45312 58.5991 2.45597C60.636 1.45881 62.8136 0.960226 65.1317 0.960226C67.5692 0.960226 69.6871 1.49716 71.4854 2.57102C73.2923 3.64489 74.6048 5.21733 75.4229 7.28835C76.2496 9.35937 76.4158 11.8864 75.9215 14.8693ZM68.7624 14.0511C69.0011 12.5511 69.0181 11.2898 68.8136 10.267C68.609 9.2358 68.1786 8.46023 67.5224 7.94034C66.8661 7.41193 65.984 7.14773 64.8761 7.14773C63.6147 7.14773 62.4982 7.45454 61.5266 8.06818C60.555 8.68182 59.7496 9.56392 59.1104 10.7145C58.4712 11.8651 58.0238 13.25 57.7681 14.8693C57.4954 16.3864 57.4698 17.6477 57.6914 18.6534C57.9215 19.6591 58.3732 20.4134 59.0465 20.9162C59.7283 21.419 60.6147 21.6705 61.7056 21.6705C62.9499 21.6705 64.0494 21.3722 65.0039 20.7756C65.967 20.179 66.7639 19.3139 67.3945 18.1804C68.0337 17.0469 68.4897 15.6705 68.7624 14.0511ZM104.114 1.31818L99.767 27.5H93.8352L86.6761 13.7443H86.5227L84.2216 27.5H77.1136L81.4602 1.31818H87.4943L94.5511 15.0227H94.7557L97.0057 1.31818H104.114Z" fill="white"/>
</svg>
